<svg width="320" height="320" viewBox="0 0 320 320" xmlns="http://www.w3.org/2000/svg">
  <rect width="320" height="320" rx="36" fill="#10111f"/>
  <path d="M92 112c8-18 22-30 36-30h64c14 0 28 12 36 30l8 24c2 8-2 16-10 18h-92c-8 0-14-6-16-14l-6-20Z" fill="#6f7cff"/>
  <path d="M94 146c-6 2-10 8-8 14l10 60c2 12 12 20 24 20h92c12 0 22-8 24-20l10-60c2-6-2-12-8-14h-6c-8 0-16 6-18 14l-10 46c0 8-6 14-14 14h-82c-8 0-14-6-14-14l-10-46c-2-8-10-14-18-14h-6Z" fill="#b2b8ff"/>
  <path d="M154 138h12v-18h-12v18Z" fill="#fff" opacity="0.18"/>
</svg>
